# xmcd CD database file
#
# Track frame offsets:
#	150
#	20377
#	38153
#	48498
#	65822
#	87787
#	102693
#	117117
#	132176
#	148330
#	166024
#	185863
#	203929
#	222127
#	242609
#	266161
#	281904
#	302584
#	323199
#
# Disc length: 4512 seconds
#
# Revision: 0
# Processed by: cddbd v1.5.2PL0 Copyright (c) Steve Scherf et al.
# Submitted via: CDex 1.51
#
DISCID=25119e13
DTITLE=Los Toros - Bachatas y algo mas
DYEAR=2006
DGENRE=Merengue
TTITLE0=Perdoname la vida
TTITLE1=Si estuvieras
TTITLE2=Medley
TTITLE3=Ansiedad
TTITLE4=Como te olvido
TTITLE5=Quisiera que el mundo acabara
TTITLE6=Sin sangre en las venas
TTITLE7=Se me olvido tu nombre
TTITLE8=Dos cosas
TTITLE9=Rondando tu esquina
TTITLE10=No pude quitarme las espinas
TTITLE11=Menos que nada
TTITLE12=Mi niña
TTITLE13=Olvidarme de ella
TTITLE14=Popurri
TTITLE15=Dos rosas
TTITLE16=Quizas si, quizas no
TTITLE17=Guararey
TTITLE18=Si tu estuvieras (merengue)
EXTD=YEAR: 2006
EXTT0=
EXTT1=
EXTT2=
EXTT3=
EXTT4=
EXTT5=
EXTT6=
EXTT7=
EXTT8=
EXTT9=
EXTT10=
EXTT11=
EXTT12=
EXTT13=
EXTT14=
EXTT15=
EXTT16=
EXTT17=
EXTT18=
PLAYORDER=
